<?xml version="1.0" standalone="no"?><!DOCTYPE svg PUBLIC "-//W3C//DTD SVG 1.1//EN" "http://www.w3.org/Graphics/SVG/1.1/DTD/svg11.dtd"><svg t="1757642471565" class="icon" viewBox="0 0 1024 1024" version="1.1" xmlns="http://www.w3.org/2000/svg" p-id="5732" xmlns:xlink="http://www.w3.org/1999/xlink" width="200" height="200"><path d="M870.272 56.89856c62.01344 0 116.224 46.39744 116.224 99.456v66.304c0 53.05344-54.21056 99.456-116.224 99.456H256.06656v199.04h331.96544v-33.152c0-53.12512 46.464-99.52256 99.64544-99.52256h199.23456c53.12 0 99.584 46.40256 99.584 99.52256v66.176c0 53.12-46.53056 99.51744-99.584 99.51744h-199.23456c-41.6 0-79.16544-28.47744-93.44-66.304H256.128v265.216h331.904v-33.152c0-52.992 46.464-99.456 99.64544-99.456h199.23456c53.12 0 99.584 46.464 99.584 99.456v66.37056c0 53.12-46.53056 99.51744-99.584 99.51744h-199.23456c-41.728 0-79.36-28.60544-93.568-66.56l-3.84 0.19456h-367.36c-19.968 0-33.21344-13.184-33.21344-33.09056V322.048H173.056c-61.952 0-116.096-46.40256-116.096-99.456V156.35456c0-53.05856 54.20544-99.456 116.16256-99.456h697.21088-0.06144z m16.64 729.472h-199.23456c-19.90144 0-33.152 13.24544-33.152 33.152v66.36544c0 19.84 13.25056 33.09056 33.152 33.09056h199.23456c19.90144 0 33.152-13.184 33.152-33.09056v-66.36544c0-19.84-13.25056-33.152-33.152-33.152z m0-331.58656h-199.23456c-19.90144 0-33.152 13.312-33.152 33.21344v66.18112c0 19.90144 13.25056 33.21344 33.152 33.21344h199.23456c19.90144 0 33.152-13.312 33.152-33.21344V488.00256c0-19.84512-13.25056-33.152-33.152-33.152v-0.06656z m-6.72256-331.52H163.2c-23.936 0-39.87456 13.184-39.87456 33.09056v66.304c0 19.90144 16 33.21344 39.87456 33.21344H880.128c23.936 0 39.86944-13.312 39.86944-33.21344v-66.304c0-19.90656-15.93344-33.15712-39.86944-33.15712h0.06144v0.06656z" fill="#ea9518" p-id="5733"></path></svg>