<svg width="101" height="51" viewBox="0 0 101 51" fill="none" xmlns="http://www.w3.org/2000/svg">
<g clip-path="url(#clip0_16490_20150)">
<path d="M9.67846 25.7419C9.72166 25.4579 9.87593 25.2026 10.1073 25.0323L16.9547 19.9927C18.2397 19.0469 20.048 19.322 20.9938 20.6069L30.412 33.4036C31.3577 34.6885 31.0827 36.4969 29.7978 37.4426L20.4911 44.2922C19.2061 45.238 17.3978 44.963 16.4521 43.678L8.84382 33.3406C8.67351 33.1092 8.6021 32.8196 8.6453 32.5356L9.67846 25.7419Z" fill="#71A3FA"/>
<path d="M10.1201 25.0234L10.0453 25.0785C9.81387 25.2488 9.6596 25.5041 9.6164 25.7881L8.59961 32.4741C8.55641 32.7582 8.62782 33.0478 8.79813 33.2792L8.85322 33.354C8.67589 33.1131 8.72746 32.774 8.96839 32.5967L12.1411 30.2616C12.5573 29.9553 12.6463 29.3696 12.34 28.9535L10.0049 25.7808C9.82762 25.5398 9.87918 25.2008 10.1201 25.0234Z" fill="#8ABDFF"/>
<path d="M16.454 33.0084C17.1768 32.4765 17.3314 31.4593 16.7995 30.7365C16.2675 30.0137 15.2503 29.859 14.5275 30.391C13.8047 30.9229 13.65 31.9401 14.182 32.6629C14.714 33.3857 15.7311 33.5404 16.454 33.0084Z" fill="white"/>
<path d="M26.9471 33.0547C27.5153 33.3091 27.5981 34.0816 27.0967 34.4506L19.318 40.1756C18.8145 40.5462 18.0986 40.2331 18.029 39.6118L17.64 36.1424C17.5717 35.5327 18.1778 35.0702 18.7478 35.297L19.1626 35.462C19.735 35.6897 20.3428 35.2225 20.2698 34.6108L19.8668 31.2321C19.792 30.6053 20.4294 30.1364 21.0056 30.3943L26.9471 33.0547Z" fill="white"/>
</g>
<g clip-path="url(#clip1_16490_20150)">
<path d="M85.7918 21.335C86.0732 21.277 86.3661 21.3332 86.6061 21.4912L93.7078 26.1656C95.0405 27.0428 95.4097 28.8343 94.5325 30.167L85.7968 43.4389C84.9196 44.7716 83.1281 45.1409 81.7954 44.2637L72.1431 37.9104C70.8104 37.0332 70.4411 35.2417 71.3183 33.909L78.3753 23.1877C78.5332 22.9477 78.7801 22.7803 79.0615 22.7223L85.7918 21.335Z" fill="#AFEDD0"/>
<path d="M86.6194 21.499L86.5418 21.4479C86.3018 21.29 86.0088 21.2338 85.7274 21.2918L79.1038 22.6571C78.8224 22.7151 78.5756 22.8825 78.4176 23.1225L78.3665 23.2001C78.531 22.9502 78.8669 22.881 79.1168 23.0454L82.4073 25.2113C82.8389 25.4954 83.4191 25.3758 83.7032 24.9442L85.8691 21.6537C86.0336 21.4038 86.3695 21.3345 86.6194 21.499Z" fill="#B3F5CF"/>
<g clip-path="url(#clip2_16490_20150)">
<path d="M86.2217 32.6842L86.0523 31.8622L81.2603 28.708L82.2769 33.6402L77.3447 34.6568L82.1368 37.811L82.9588 37.6415" stroke="white" stroke-width="1.4837" stroke-linecap="square" stroke-linejoin="round"/>
</g>
</g>
<g clip-path="url(#clip3_16490_20150)">
<path d="M71.7766 9.94136C72.1533 9.81339 72.5654 9.84029 72.9223 10.0162L83.4816 15.2201C85.4632 16.1966 86.2779 18.5947 85.3014 20.5762L75.5761 40.3099C74.5996 42.2915 72.2015 43.1062 70.2199 42.1297L55.8681 35.0568C53.8866 34.0802 53.0719 31.6822 54.0484 29.7006L61.9047 13.7593C62.0805 13.4025 62.3909 13.1301 62.7676 13.0021L71.7766 9.94136Z" fill="#71A3FA"/>
<path d="M72.9419 10.0264L72.8265 9.96948C72.4696 9.79362 72.0575 9.76672 71.6809 9.89469L62.8146 12.9069C62.4379 13.0349 62.1275 13.3073 61.9517 13.6641L61.8948 13.7795C62.0779 13.408 62.5275 13.2552 62.8991 13.4384L67.7917 15.8496C68.4335 16.1658 69.2101 15.902 69.5264 15.2602L71.9376 10.3676C72.1207 9.99602 72.5704 9.84326 72.9419 10.0264Z" fill="#8ABDFF"/>
<path d="M66.5287 20.4346L65.2314 26.9336L69.9488 22.1201L71.7886 23.0268L70.8451 29.7002L75.2087 24.7123L77.6264 25.9038L70.5905 33.4883L68.2318 32.3259L69.0263 26.312L64.741 30.6055L62.3823 29.4431L64.1111 19.2432L66.5287 20.4346Z" fill="white"/>
</g>
<g clip-path="url(#clip4_16490_20150)">
<path d="M21.8381 14.2725C22.0016 13.9098 22.3024 13.627 22.6745 13.4861L33.6838 9.31773C35.7498 8.53549 38.0588 9.5762 38.841 11.6422L46.631 32.2169C47.4133 34.2829 46.3725 36.5918 44.3065 37.3741L29.3432 43.0395C27.2771 43.8217 24.9682 42.781 24.1859 40.715L17.893 24.0944C17.7522 23.7224 17.7649 23.3096 17.9284 22.9469L21.8381 14.2725Z" fill="#FEA581"/>
<path d="M22.6951 13.4785L22.5747 13.5241C22.2027 13.6649 21.9018 13.9478 21.7383 14.3105L17.8906 22.8474C17.7271 23.2101 17.7144 23.6229 17.8553 23.9949L17.9008 24.1153C17.7541 23.7279 17.9493 23.2949 18.3367 23.1483L23.4378 21.2169C24.1069 20.9635 24.444 20.2158 24.1906 19.5466L22.2592 14.4455C22.1126 14.0581 22.3077 13.6252 22.6951 13.4785Z" fill="#FFBB96"/>
<path d="M30.9933 27.9351L31.8882 27.5963C32.8794 27.221 33.2117 26.602 32.8851 25.7393C32.5584 24.8765 31.8995 24.6328 30.9083 25.0081L30.0134 25.3469L30.9933 27.9351ZM33.12 33.5521L30.4217 34.5738L26.4915 24.1934L30.7868 22.5671C31.9524 22.1257 32.9574 22.0915 33.8016 22.4645C34.6551 22.8339 35.2903 23.5693 35.7073 24.6707C36.1243 25.7721 36.1355 26.7438 35.7407 27.5858C35.3551 28.4244 34.5795 29.0644 33.4139 29.5057L31.8169 30.1103L33.12 33.5521Z" fill="white"/>
</g>
<path d="M44.7864 4.58383C45.1614 4.20876 45.6702 3.99805 46.2006 3.99805H61.8966C64.8422 3.99805 67.23 6.38586 67.23 9.33138V38.6647C67.23 41.6102 64.8422 43.998 61.8966 43.998H40.5633C37.6178 43.998 35.23 41.6102 35.23 38.6647V14.9687C35.23 14.4382 35.4407 13.9295 35.8158 13.5544L44.7864 4.58383Z" fill="#FE5A4E"/>
<path d="M46.23 3.99805H46.0584C45.528 3.99805 45.0193 4.20876 44.6442 4.58383L35.8158 13.4123C35.4407 13.7873 35.23 14.296 35.23 14.8265V14.998C35.23 14.4458 35.6777 13.998 36.23 13.998H43.5027C44.4567 13.998 45.23 13.2247 45.23 12.2708V4.99805C45.23 4.44576 45.6777 3.99805 46.23 3.99805Z" fill="#FFA294"/>
<g clip-path="url(#clip5_16490_20150)">
<path d="M58.7675 31.2446C57.2023 31.1287 55.6951 30.549 54.4777 29.5055C52.1009 30.0272 49.84 30.7809 47.5791 31.7084C45.782 34.8968 44.1009 36.52 42.6516 36.52C42.3617 36.52 42.0139 36.462 41.782 36.2881C41.1443 35.9983 40.7965 35.3606 40.7965 34.7229C40.7965 34.2012 40.9125 32.7519 46.4197 30.3751C47.6951 28.0562 48.6806 25.6794 49.4922 23.1867C48.7965 21.7954 47.2893 18.3751 48.3327 16.6359C48.6806 15.9983 49.3762 15.6504 50.1298 15.7084C50.7096 15.7084 51.2893 15.9983 51.6371 16.462C52.3907 17.5055 52.3327 19.7084 51.3472 22.9548C52.2748 24.6939 53.4922 26.2591 54.9414 27.5925C56.1588 27.3606 57.3762 27.1867 58.5936 27.1867C61.3182 27.2446 61.724 28.52 61.6661 29.2736C61.6661 31.2446 59.753 31.2446 58.7675 31.2446ZM42.5356 34.8388L42.7096 34.7809C43.5211 34.491 44.1588 33.9113 44.6226 33.1577C43.753 33.5055 43.0574 34.0852 42.5356 34.8388ZM50.2458 17.4475H50.0719C50.0139 17.4475 49.898 17.4475 49.84 17.5055C49.6081 18.491 49.782 19.5345 50.1878 20.462C50.5356 19.4765 50.5356 18.433 50.2458 17.4475ZM50.6516 25.8533L50.5936 25.9693L50.5356 25.9113C50.0139 27.2446 49.4342 28.578 48.7965 29.8533L48.9125 29.7954V29.9113C50.1878 29.4475 51.5791 29.0417 52.8545 28.7519L52.7965 28.6939H52.9704C52.1009 27.8243 51.2893 26.8388 50.6516 25.8533ZM58.5356 28.9258C58.0139 28.9258 57.5501 28.9258 57.0284 29.0417C57.6081 29.3316 58.1878 29.4475 58.7675 29.5055C59.1733 29.5635 59.5791 29.5055 59.9269 29.3896C59.9269 29.2157 59.6951 28.9258 58.5356 28.9258Z" fill="white"/>
</g>
<defs>
<clipPath id="clip0_16490_20150">
<rect width="26" height="26" fill="white" transform="translate(0.5 29.4121) rotate(-36.3528)"/>
</clipPath>
<clipPath id="clip1_16490_20150">
<rect width="26" height="26" fill="white" transform="translate(79.1663 14) rotate(33.3534)"/>
</clipPath>
<clipPath id="clip2_16490_20150">
<rect width="9.49565" height="9.49565" fill="white" transform="translate(80.5903 26.8457) rotate(33.3534)"/>
</clipPath>
<clipPath id="clip3_16490_20150">
<rect width="36" height="36" fill="white" transform="translate(61.4141 1) rotate(26.2351)"/>
</clipPath>
<clipPath id="clip4_16490_20150">
<rect width="36" height="36" fill="white" transform="translate(8.23047 15.7471) rotate(-20.7377)"/>
</clipPath>
<clipPath id="clip5_16490_20150">
<rect width="20.8696" height="20.8696" fill="white" transform="translate(40.7966 15.6484)"/>
</clipPath>
</defs>
</svg>
