<?xml version="1.0" encoding="UTF-8"?>
<svg id="_图层_1" data-name="图层 1" xmlns="http://www.w3.org/2000/svg" viewBox="0 0 819.65 231.86">
  <path d="m60.85,216.56c-.72-.35-1.56-.37-2.3-.05-8.45,3.61-19.91,8.46-34.37,14.54-3.64,1.53-7.71,1.06-9.25-3.01-.36-.96-.37-2.53-.03-4.72,3.42-21.95,5.52-35.39,6.31-40.33.07-.46-.04-.93-.3-1.32C.45,151.29-4.99,118.12,4.57,82.18c5.17-19.4,16.78-38.19,32.03-52.07C54.26,14.05,75.01,4.35,98.87,1.01c15.59-2.18,31.56-.84,47.93,4.01,42.73,12.67,72.96,48.82,80.03,92.45,5.25,32.39-3.99,64.96-24.64,90.35-13.89,17.07-31.37,29.16-52.42,36.29-9.28,3.14-18.29,4.87-27.04,5.18-5.96.22-15.74.45-21.83-.24-14.18-1.61-26.93-6.11-40.05-12.49Zm-11.11-147.82c-3.29.1-6.58.18-9.88.24-5.16.09-5.14,4.03-5.14,7.97.03,29.95.05,58.2.06,84.74,0,3.73,1.74,5.62,5.19,5.66,10.77.11,21.82.18,33.16.2,10.55.02,22.22,1.59,31.78,7.36.73.45,2.8,1.93,6.19,4.46,2.04,1.53,4.21,2.42,6.19.75,9.36-7.87,20.3-12,32.83-12.37,10.95-.33,23.6-.43,37.95-.32,5.19.04,6.02-3.05,6.02-7.87-.03-39.61-.02-68.15.03-85.61.01-4.22-2.95-4.91-6.75-5.04-2.65-.09-5.38-.28-8.2-.57.03-2.47,0-4.93-.1-7.39-.26-6.21-4.39-6.95-9.95-6.77-16.68.52-34.56-.08-47.85,11.17-1.57,1.33-2.35,2.45-2.35,3.36-.03,25.96-.04,47.85-.05,65.68,0,2.24-1.81,4.05-4.05,4.05h-.48c-2.19,0-3.96-1.77-3.96-3.95v-65.77c0-.55-.21-1.09-.58-1.49-6.59-7.19-15.56-10.39-25.23-11.5-8.99-1.03-18.26-1.54-27.81-1.55-2.64,0-4.59.78-5.84,2.35-1.78,2.23-1.07,8.8-1.18,12.21Z" style="fill: #5446e2; stroke-width: 0px;"/>
  <path d="m324.52,161.13c-.07.07-.07.17,0,.24.03.03.08.05.13.05,15.95-.07,38.85-.11,68.7-.12,4.74-.01,4,3.38,4.04,7.49.11,11.93.11,18.78,0,20.55-.18,2.69-2.14,3.37-4.76,3.37-41.81,0-79.41,0-112.79,0-.18,0-.36-.03-.53-.08-1.85-.55-2.78-1.79-2.79-3.7-.04-5.42-.04-10.82,0-16.2.01-1.43.45-2.75,1.32-3.96,18.78-26.16,42.24-58.75,70.38-97.76.1-.14.08-.33-.05-.43-.06-.04-.12-.07-.2-.07-19.28.05-40.02.06-62.23.02-3.55-.01-6.37.61-6.39-3.52-.04-8.09-.02-16.23.07-24.44.02-2.13,1.82-2.43,3.68-2.43,31.06-.02,67.8-.01,110.22.02,1.49,0,2.51.36,3.06,1.08.21.27.32.61.32.95.02,5.03.04,10.38.05,16.07,0,1.93-.42,3.47-1.26,4.64-40.34,56.17-63.42,88.19-69.23,96.08-.54.74-1.12,1.46-1.74,2.15Z" style="fill: #131313; stroke-width: 0px;"/>
  <path d="m550.89,73.7c.03-10.43.02-17.42-.05-20.97-.07-4.02,1.81-6.02,5.64-6,13.73.07,20.9.11,21.49.12,3.65.04,4.22,2.75,4.21,6.03-.07,13.58-.1,20.59-.11,21.04,0,.31.25.57.56.58,0,0,0,0,.01,0,12.19-.11,19.82-.1,22.89.03,2.7.11,3.3,2.59,3.33,4.96.11,10.13.06,16.43-.15,18.9-.13,1.46-1.05,2.46-2.76,2.99-.21.07-.43.1-.65.1l-22.82.07c-.22,0-.4.18-.4.4-.01,15.52-.05,31.45-.1,47.79-.01,2.86.53,5.8,1.63,8.82,3.67,10.08,12.94,7.17,20.96,5.87,2.01-.32,4.23.5,4.24,2.71.05,10.05.06,17.01.04,20.89-.01,3.66-2.63,3.96-5.86,4.48-7.6,1.23-13.98,1.58-19.13,1.05-16.73-1.7-27.31-10.22-31.74-25.57-.87-3.01-1.29-6.88-1.25-11.63.09-11.69.1-29.75.01-54.17,0-.44-.35-.79-.79-.79-.01,0-.02,0-.03,0-4.99.21-10.15.25-15.46.12-2.77-.07-4.15-1.5-4.16-4.31-.03-6.25-.03-12.46,0-18.65,0-2.05,1.03-3.42,3.06-4.1.13-.04.26-.06.39-.06l16.24.06c.42,0,.76-.34.76-.76h0Z" style="fill: #131313; stroke-width: 0px;"/>
  <path d="m671.73,101.47c-.3,0-.55.24-.56.54,0,0,0,0,0,.01-.02,17.85-.03,32.32-.02,43.41,0,1.98.15,3.84.44,5.58.43,2.51.47,5.03,1.44,7.28,4.34,10.02,13.45,7.98,22.11,6.07,1.27-.28,2.3.1,3.1,1.14.19.25.29.55.29.86v23.19c0,.18-.03.35-.09.51-.46,1.21-1.84,2.03-4.14,2.44-8.5,1.51-17.95,1.8-25.92.39-12.81-2.28-22.27-11.08-26.34-23.26-.93-2.79-1.39-6.76-1.38-11.92.03-14.91.03-33.54,0-55.88,0-.21-.17-.38-.39-.38h0c-6.85.1-12.16.14-15.95.11-4.32-.03-4.91-2.92-4.91-6.87-.02-8.22.02-13.72.12-16.51.1-2.73,2.05-3.75,4.74-3.75,2.45,0,7.75.02,15.91.06.28,0,.51-.22.51-.5,0,0,0,0,0,0-.01-1.35-.05-8.94-.1-22.75-.02-3.95,2.27-4.46,5.72-4.45,3.76.01,9.34.03,16.75.04,4.63,0,8.28-.22,8.13,5.29-.01.48-.02,7.78-.03,21.89,0,.29.23.52.51.52,0,0,0,0,0,0,4.25-.09,12.18-.1,23.81-.05,1.37,0,2.34.77,2.93,2.3.07.18.1.36.1.55v20.96c0,.18-.03.36-.1.53-.71,1.81-1.84,2.71-3.41,2.72-9.35.06-17.11.04-23.28-.06Z" style="fill: #131313; stroke-width: 0px;"/>
  <path d="m49.74,68.74c-.04,23.41-.05,46.83-.02,70.26,0,4.55.91,8.31,6.15,7.9,21.66-1.69,42.16-.52,58.61,14.4.18.16.44.16.62,0,7.86-7.13,16.05-11.5,24.57-13.11,9.95-1.89,20.51-2.29,31.68-1.2,3.21.31,5.46-.47,6.74-2.34.77-1.14,1.16-3.57,1.16-7.29,0-23.01-.03-46.02-.08-69.02,2.82.29,5.55.48,8.2.57,3.8.13,6.76.82,6.75,5.04-.05,17.46-.06,46-.03,85.61,0,4.82-.83,7.91-6.02,7.87-14.35-.11-27,0-37.95.32-12.53.37-23.47,4.5-32.83,12.37-1.98,1.67-4.15.78-6.19-.75-3.39-2.53-5.46-4.01-6.19-4.46-9.56-5.77-21.23-7.34-31.78-7.36-11.34-.02-22.39-.09-33.16-.2-3.45-.04-5.18-1.93-5.19-5.66-.01-26.54-.03-54.79-.06-84.74,0-3.94-.02-7.88,5.14-7.97,3.3-.06,6.59-.14,9.88-.24Z" style="fill: #211c8a; stroke-width: 0px;"/>
  <path d="m440.01,142.94c-.23,0-.41.2-.41.43,0,.02,0,.05,0,.07,3.45,16.83,16.58,27.77,34.25,25.46,8.85-1.16,14.32-5.83,19.34-12.84.2-.29.52-.48.86-.52,1.81-.22,2.98-.24,3.52-.05,5.91,2.06,13.02,4.45,21.35,7.16,3.1,1.01,3.18,3.38,1.58,5.79-9.95,15.06-23.92,23.72-41.93,25.98-3.05.38-8.12.41-15.22.09-7.19-.33-14.68-2.28-22.49-5.84-24.98-11.41-35.15-35.91-32.98-62.25,2.35-28.52,24.98-52.82,54.45-53.56,6.93-.17,12.55.19,16.87,1.1,22.84,4.78,39.47,21.26,44.88,43.96,1.52,6.39,2.01,13.97,1.48,22.75-.05.84-.58,1.48-1.59,1.92-.51.23-1.36.34-2.55.33-27.32-.09-54.46-.08-81.42.02Zm26.72-20.38c6.68,0,15.48,0,26.41,0,.22,0,.4-.17.4-.4,0-.02,0-.04,0-.06-2.11-14.12-12.03-24.09-26.81-24.09s-24.7,9.97-26.81,24.1c-.03.22.12.42.34.46.02,0,.04,0,.06,0,10.93,0,19.73-.01,26.41,0Z" style="fill: #131313; stroke-width: 0px;"/>
  <path d="m788.85,180.84c-.91.76-1.59,1.8-2.8,2.83-16.26,13.89-41.33,15.05-59.27,3.62-7.71-4.91-12.58-11.68-14.61-20.3-.25-1.07-.32-3.93-.21-8.58.07-3.19.54-5.98,1.41-8.38,7.67-21.31,30.39-29.12,51.48-28.81,4.79.07,12.75.08,23.86.05.21,0,.38-.16.4-.36.98-9.79-3.42-18.85-13.39-21.55-6.82-1.85-13.44-1.46-19.86,1.17-5.07,2.08-9.86,7.51-12.95,12.05-.64.94-1.79,1.38-2.9,1.1-8.2-2.07-15.32-3.91-21.37-5.5-3.74-.98-3.2-4.46-1.63-7.2,5.51-9.61,12.18-16.86,20.03-21.76,4.8-2.99,10.98-4.92,18.55-5.77,1.61-.18,6.43-.24,14.48-.18,6.26.05,11.06.49,14.41,1.34,16.29,4.15,28.43,12.41,33.44,28.88,1.17,3.86,1.75,10.59,1.73,20.2-.09,42.53-.1,64.39-.03,65.56.16,2.51-2.04,3.44-4.38,3.43-4.47-.03-12-.03-22.61,0-.46,0-.9-.14-1.28-.4-2.82-1.96-1.62-7.95-1.7-11.08-.01-.27-.24-.48-.51-.47-.11,0-.21.04-.29.11Zm-.41-38c-5.18.06-13.89.07-26.13.04-8.53-.02-18.72,3.85-19.73,13.71-1.79,17.52,22.15,14.33,31.49,10.14,5.53-2.47,9.79-6.04,12.8-10.69,2.01-3.11,2.76-7.31,2.25-12.59-.04-.35-.33-.62-.68-.61Z" style="fill: #131313; stroke-width: 0px;"/>
  <rect x="65.94" y="84.1" width="33.54" height="10.7" rx="5.18" ry="5.18" transform="translate(-.31 .29) rotate(-.2)" style="fill: #5446e2; stroke-width: 0px;"/>
  <rect x="76.96" y="92.25" width="11.1" height="32.94" rx="5.36" ry="5.36" transform="translate(-26.5 190.86) rotate(-89.8)" style="fill: #5446e2; stroke-width: 0px;"/>
</svg>