<?xml version="1.0" standalone="no"?><!DOCTYPE svg PUBLIC "-//W3C//DTD SVG 1.1//EN" "http://www.w3.org/Graphics/SVG/1.1/DTD/svg11.dtd"><svg t="1763996585614" class="icon" viewBox="0 0 1024 1024" version="1.1" xmlns="http://www.w3.org/2000/svg" p-id="5611" xmlns:xlink="http://www.w3.org/1999/xlink" width="512" height="512"><path d="M768 640V492.8a12.8 12.8 0 0 0-12.8-12.8H544V384h179.2a12.8 12.8 0 0 0 12.8-12.8V140.8a12.8 12.8 0 0 0-12.8-12.8H300.8a12.8 12.8 0 0 0-12.8 12.8v230.4c0 7.04 5.76 12.8 12.8 12.8h179.2v96H268.8a12.8 12.8 0 0 0-12.8 12.8V640H140.8a12.8 12.8 0 0 0-12.8 12.8v230.4c0 7.04 5.76 12.8 12.8 12.8h294.4a12.8 12.8 0 0 0 12.8-12.8v-230.4a12.8 12.8 0 0 0-12.8-12.8H320V544h384V640H588.8a12.8 12.8 0 0 0-12.8 12.8v230.4c0 7.04 5.76 12.8 12.8 12.8h294.4a12.8 12.8 0 0 0 12.8-12.8v-230.4a12.8 12.8 0 0 0-12.8-12.8H768z" p-id="5612" fill="#8a8a8a"></path></svg>