<?xml version="1.0" standalone="no"?><!DOCTYPE svg PUBLIC "-//W3C//DTD SVG 1.1//EN" "http://www.w3.org/Graphics/SVG/1.1/DTD/svg11.dtd"><svg t="1764332626101" class="icon" viewBox="0 0 1024 1024" version="1.1" xmlns="http://www.w3.org/2000/svg" p-id="7634" xmlns:xlink="http://www.w3.org/1999/xlink" width="512" height="512"><path d="M835.584 442.368H819.2l-61.44-4.096-8.192 12.288c16.384 36.864 24.576 81.92 24.576 126.976 0 180.224-143.36 323.584-323.584 323.584s-323.584-147.456-323.584-327.68S270.336 249.856 450.56 249.856c45.056 0 86.016 8.192 122.88 24.576l8.192-8.192V208.896v-20.48c-40.96-12.288-86.016-20.48-131.072-20.48-225.28 0-405.504 180.224-405.504 405.504s180.224 405.504 405.504 405.504 405.504-180.224 405.504-405.504c0-45.056-8.192-90.112-20.48-131.072z" p-id="7635" fill="#cdcdcd"></path><path d="M389.12 458.752l94.208-94.208c-12.288-4.096-20.48-4.096-32.768-4.096-114.688 0-212.992 94.208-212.992 212.992 0 118.784 94.208 212.992 212.992 212.992 118.784 0 212.992-94.208 212.992-212.992 0-12.288 0-24.576-4.096-36.864l-94.208 94.208c-20.48 45.056-65.536 73.728-114.688 73.728-73.728 0-131.072-57.344-131.072-131.072 0-49.152 28.672-90.112 69.632-114.688z" p-id="7636" fill="#cdcdcd"></path><path d="M978.944 184.32c-4.096-16.384-20.48-24.576-36.864-24.576l-73.728-4.096-4.096-73.728c0-16.384-12.288-28.672-24.576-36.864-16.384-4.096-32.768-4.096-45.056 8.192l-122.88 122.88c-8.192 8.192-12.288 20.48-12.288 28.672l4.096 94.208-212.992 217.088c-16.384 16.384-16.384 40.96 0 57.344 16.384 16.384 40.96 16.384 57.344 0l212.992-212.992 94.208 4.096c12.288 0 20.48-4.096 28.672-12.288l122.88-122.88c12.288-12.288 16.384-28.672 12.288-45.056z" p-id="7637" fill="#cdcdcd"></path></svg>